<svg width="706" height="684" viewBox="0 0 706 684" fill="none" xmlns="http://www.w3.org/2000/svg">
<ellipse cx="353" cy="342" rx="353" ry="342" fill="#DFDCDC"/>
<g clip-path="url(#clip0)">
<path d="M508.105 146.381C503.045 129.973 487.032 99.4872 437.111 91.1859C395.799 84.3045 366.082 107.293 346.272 161.817C337.312 185.898 322.675 207.467 303.599 224.682L207.5 328.5L89.232 411.746C85.0541 415.495 73.1808 418.737 74 424.292C74.8153 429.847 88.2139 436.974 93.293 439.365C105.074 444.905 128.761 453.015 148.079 459.455C148.515 459.564 148.956 459.635 149.401 459.674C149.697 459.76 149.998 459.826 150.298 459.877C151.145 460.22 151.968 460.61 152.771 461.039C153.805 461.57 154.87 462.045 155.955 462.463C162.937 465.041 170.56 467.55 179.965 470.355C196.638 475.192 213.588 479.011 230.725 481.796L272.782 578.853C276.764 588.048 285.826 594 295.848 594H385.431C394.688 593.989 402.185 586.491 402.197 577.234C402.17 554.101 383.421 535.353 360.285 535.326H309.888L288.428 487.472C293.402 487.64 298.399 487.964 303.35 487.964C358.248 488.365 433.935 509.899 484.262 487.964C503.915 479.202 564.264 422.197 579.482 380.819C593.763 342.02 554.297 300.022 531.648 272.013L530.852 271.037C524.337 262.502 516.867 254.739 508.585 247.9C541.81 260.068 566.557 266.528 567.736 266.836C568.422 267.011 569.128 267.101 569.838 267.101C574.11 267.097 577.699 263.887 578.175 259.639C586.745 182.465 530.544 156.383 508.105 146.381ZM493.609 158.049C494.108 160.842 494.37 163.674 494.401 166.51C494.401 181.073 491.487 210.057 489.782 225.782L489.759 226.035H489.751C489.751 226.035 489.61 227.409 489.439 229.059C465.881 241.745 437.302 240.688 414.746 226.293C391.118 213.958 373.014 193.166 364.041 168.071C366.745 168.761 369.526 169.124 372.319 169.143C377.71 169.015 383.039 167.977 388.087 166.081C393.903 163.936 399.533 161.314 404.916 158.248C425.349 147.399 448.498 135.22 493.609 158.049ZM506.49 227.147C508.577 207.908 510.988 182.66 511.136 167.985C523.128 182.161 531.69 201.303 506.49 227.147ZM434.349 107.722C454.111 109.759 472.161 119.843 484.262 135.595C441.765 119.761 416.307 133.219 397.055 143.444C392.476 146.061 387.693 148.316 382.754 150.185C378.237 152.143 373.244 152.747 368.387 151.924C384.529 116.609 405.298 102.908 434.349 107.722ZM151.394 442.888C139.188 438.811 112.197 429.741 100.346 424.292L217 339.383L314.717 237.239C330.633 222.883 343.803 205.746 353.579 186.671C365.278 209.675 383.71 228.567 406.414 240.84C418.647 248.205 432.34 252.824 446.536 254.376C430.698 262.588 415.679 272.286 401.674 283.337C380.18 300.486 360.004 319.218 341.314 339.383C329.822 351.195 317.928 363.409 305.624 374.652C266.212 410.673 214.302 433.592 151.394 442.888ZM309.888 552.088H360.285C374.168 552.104 385.419 563.354 385.431 577.234H295.848C292.509 577.238 289.49 575.252 288.163 572.19L250.273 484.749C251.049 484.843 251.837 484.89 252.617 484.979C255.801 485.35 258.988 485.627 262.179 485.927C264.687 486.161 267.184 486.477 269.692 486.669L294.592 542.184C297.295 548.207 303.283 552.084 309.888 552.088ZM517.854 281.625L518.646 282.596C537.561 305.998 578.515 337.849 566.262 371.144C553.248 406.537 501.984 458.211 484.262 466.106C427.499 490.628 337.487 474.911 275.824 470.292C269.485 469.887 263.131 469.333 256.799 468.63C250.468 467.932 244.176 467.089 237.957 466.106H237.926C219.954 463.345 202.181 459.397 184.728 454.286C184.366 454.181 184.007 454.076 183.656 453.97C233.175 443.715 279.132 420.633 316.933 387.033C329.596 375.459 341.657 363.066 353.325 351.082C371.445 331.526 390.993 313.347 411.809 296.69C437.427 277.244 464.999 259.315 492.965 258.792C493.683 259.233 494.549 259.362 495.368 259.155C504.188 265.19 511.811 272.808 517.854 281.625ZM522.09 234.922C536.45 218.604 541.899 201.849 538.42 185.215C555.143 201.611 563.842 224.514 562.22 247.877C553.364 245.31 539.059 240.922 522.09 234.922Z" fill="#96BFD9"/>
<path d="M460.872 183.277C460.872 187.903 457.119 191.656 452.489 191.656C447.858 191.656 444.105 187.903 444.105 183.277C444.105 178.646 447.858 174.893 452.489 174.893C457.119 174.893 460.872 178.646 460.872 183.277Z" fill="#96BFD9"/>
</g>
<defs>
<clipPath id="clip0">
<rect width="504" height="504" fill="white" transform="translate(79 90)"/>
</clipPath>
</defs>
</svg>
